<mxfile host="app.diagrams.net" modified="2023-06-29T18:26:58.597Z" agent="Mozilla/5.0 (Windows NT 10.0; Win64; x64) AppleWebKit/537.36 (KHTML, like Gecko) Chrome/114.0.0.0 Safari/537.36" version="21.5.0" etag="fyA9KwBTBu2xaw0x8wcF" type="device" pages="2">
  <diagram id="eKBMGTK15I7cGe31LMc2" name="High Level View">
    <mxGraphModel dx="880" dy="395" grid="1" gridSize="10" guides="1" tooltips="1" connect="1" arrows="1" fold="1" page="1" pageScale="1" pageWidth="850" pageHeight="1100" math="0" shadow="0">
      <root>
        <mxCell id="0" />
        <mxCell id="1" parent="0" />
        <mxCell id="5" style="edgeStyle=none;html=1;exitX=0.5;exitY=1;exitDx=0;exitDy=0;entryX=0.5;entryY=0;entryDx=0;entryDy=0;" parent="1" source="2" target="3" edge="1">
          <mxGeometry relative="1" as="geometry" />
        </mxCell>
        <mxCell id="2" value="autoload classes" style="rounded=0;whiteSpace=wrap;html=1;" parent="1" vertex="1">
          <mxGeometry x="365" y="100" width="120" height="60" as="geometry" />
        </mxCell>
        <mxCell id="6" style="edgeStyle=none;html=1;exitX=0.5;exitY=1;exitDx=0;exitDy=0;entryX=0.5;entryY=0;entryDx=0;entryDy=0;" parent="1" source="3" target="4" edge="1">
          <mxGeometry relative="1" as="geometry" />
        </mxCell>
        <mxCell id="3" value="get controller &amp;amp; action from the url" style="rounded=0;whiteSpace=wrap;html=1;" parent="1" vertex="1">
          <mxGeometry x="358" y="230" width="135" height="60" as="geometry" />
        </mxCell>
        <mxCell id="G3-GhynAYAgm6OxzWJCH-7" style="edgeStyle=none;html=1;exitX=0.5;exitY=1;exitDx=0;exitDy=0;entryX=0.5;entryY=0;entryDx=0;entryDy=0;" parent="1" source="4" target="G3-GhynAYAgm6OxzWJCH-6" edge="1">
          <mxGeometry relative="1" as="geometry" />
        </mxCell>
        <mxCell id="4" value="Bootstrap" style="rounded=0;whiteSpace=wrap;html=1;" parent="1" vertex="1">
          <mxGeometry x="365" y="360" width="120" height="60" as="geometry" />
        </mxCell>
        <mxCell id="G3-GhynAYAgm6OxzWJCH-6" value="Get controller" style="rounded=0;whiteSpace=wrap;html=1;" parent="1" vertex="1">
          <mxGeometry x="366" y="500" width="120" height="60" as="geometry" />
        </mxCell>
      </root>
    </mxGraphModel>
  </diagram>
  <diagram id="mVDyyTg0kduLMybS84fb" name="GetController">
    <mxGraphModel dx="880" dy="395" grid="1" gridSize="10" guides="1" tooltips="1" connect="1" arrows="1" fold="1" page="1" pageScale="1" pageWidth="850" pageHeight="1100" math="0" shadow="0">
      <root>
        <mxCell id="0" />
        <mxCell id="1" parent="0" />
        <mxCell id="Cp3_aSlMcbeV5Vyt-3TC-9" style="edgeStyle=none;html=1;exitX=0.5;exitY=1;exitDx=0;exitDy=0;" parent="1" source="Cp3_aSlMcbeV5Vyt-3TC-1" target="Cp3_aSlMcbeV5Vyt-3TC-2" edge="1">
          <mxGeometry relative="1" as="geometry" />
        </mxCell>
        <mxCell id="Cp3_aSlMcbeV5Vyt-3TC-1" value="Pre process request" style="rounded=0;whiteSpace=wrap;html=1;" parent="1" vertex="1">
          <mxGeometry x="350" y="120" width="120" height="60" as="geometry" />
        </mxCell>
        <mxCell id="Cp3_aSlMcbeV5Vyt-3TC-3" value="Yes" style="edgeStyle=none;html=1;exitX=0.5;exitY=1;exitDx=0;exitDy=0;entryX=0.5;entryY=0;entryDx=0;entryDy=0;" parent="1" source="Cp3_aSlMcbeV5Vyt-3TC-2" edge="1" target="Cp3_aSlMcbeV5Vyt-3TC-4">
          <mxGeometry relative="1" as="geometry">
            <mxPoint x="410" y="410" as="targetPoint" />
          </mxGeometry>
        </mxCell>
        <mxCell id="Cp3_aSlMcbeV5Vyt-3TC-10" value="No" style="edgeStyle=none;html=1;exitX=1;exitY=0.5;exitDx=0;exitDy=0;entryX=0;entryY=0.5;entryDx=0;entryDy=0;" parent="1" source="Cp3_aSlMcbeV5Vyt-3TC-2" edge="1" target="Cp3_aSlMcbeV5Vyt-3TC-11">
          <mxGeometry relative="1" as="geometry">
            <mxPoint x="570" y="295" as="targetPoint" />
          </mxGeometry>
        </mxCell>
        <mxCell id="Cp3_aSlMcbeV5Vyt-3TC-2" value="controller class exists" style="rhombus;whiteSpace=wrap;html=1;" parent="1" vertex="1">
          <mxGeometry x="355" y="250" width="110" height="90" as="geometry" />
        </mxCell>
        <mxCell id="Cp3_aSlMcbeV5Vyt-3TC-5" value="Yes" style="edgeStyle=none;html=1;exitX=0.5;exitY=1;exitDx=0;exitDy=0;" parent="1" source="Cp3_aSlMcbeV5Vyt-3TC-4" edge="1">
          <mxGeometry relative="1" as="geometry">
            <mxPoint x="410" y="660" as="targetPoint" />
          </mxGeometry>
        </mxCell>
        <mxCell id="Cp3_aSlMcbeV5Vyt-3TC-12" value="No" style="edgeStyle=none;html=1;exitX=1;exitY=0.5;exitDx=0;exitDy=0;entryX=0;entryY=0.5;entryDx=0;entryDy=0;" parent="1" source="Cp3_aSlMcbeV5Vyt-3TC-4" edge="1" target="Cp3_aSlMcbeV5Vyt-3TC-13">
          <mxGeometry relative="1" as="geometry">
            <mxPoint x="590" y="475" as="targetPoint" />
          </mxGeometry>
        </mxCell>
        <mxCell id="Cp3_aSlMcbeV5Vyt-3TC-4" value="Abstract Controller is extended by" style="rhombus;whiteSpace=wrap;html=1;" parent="1" vertex="1">
          <mxGeometry x="335" y="430" width="150" height="130" as="geometry" />
        </mxCell>
        <mxCell id="Cp3_aSlMcbeV5Vyt-3TC-7" value="Yes" style="edgeStyle=none;html=1;exitX=0.5;exitY=1;exitDx=0;exitDy=0;" parent="1" source="Cp3_aSlMcbeV5Vyt-3TC-6" edge="1">
          <mxGeometry relative="1" as="geometry">
            <mxPoint x="410" y="900" as="targetPoint" />
          </mxGeometry>
        </mxCell>
        <mxCell id="Cp3_aSlMcbeV5Vyt-3TC-14" value="No" style="edgeStyle=none;html=1;exitX=1;exitY=0.5;exitDx=0;exitDy=0;entryX=0;entryY=0.5;entryDx=0;entryDy=0;" parent="1" source="Cp3_aSlMcbeV5Vyt-3TC-6" target="Cp3_aSlMcbeV5Vyt-3TC-15" edge="1">
          <mxGeometry relative="1" as="geometry">
            <mxPoint x="570" y="725" as="targetPoint" />
          </mxGeometry>
        </mxCell>
        <mxCell id="Cp3_aSlMcbeV5Vyt-3TC-6" value="Action method exists" style="rhombus;whiteSpace=wrap;html=1;" parent="1" vertex="1">
          <mxGeometry x="340" y="660" width="140" height="130" as="geometry" />
        </mxCell>
        <mxCell id="Cp3_aSlMcbeV5Vyt-3TC-8" value="return new controller instance" style="rounded=0;whiteSpace=wrap;html=1;" parent="1" vertex="1">
          <mxGeometry x="355" y="900" width="120" height="60" as="geometry" />
        </mxCell>
        <mxCell id="Cp3_aSlMcbeV5Vyt-3TC-11" value="Print class does not exist" style="rounded=0;whiteSpace=wrap;html=1;" parent="1" vertex="1">
          <mxGeometry x="590" y="265" width="120" height="60" as="geometry" />
        </mxCell>
        <mxCell id="Cp3_aSlMcbeV5Vyt-3TC-13" value="Print Base Controller isn&#39;t found" style="rounded=0;whiteSpace=wrap;html=1;" parent="1" vertex="1">
          <mxGeometry x="590" y="465" width="120" height="60" as="geometry" />
        </mxCell>
        <mxCell id="Cp3_aSlMcbeV5Vyt-3TC-15" value="print method is not found" style="rounded=0;whiteSpace=wrap;html=1;" parent="1" vertex="1">
          <mxGeometry x="590" y="695" width="120" height="60" as="geometry" />
        </mxCell>
        <mxCell id="Cp3_aSlMcbeV5Vyt-3TC-17" style="edgeStyle=none;html=1;exitX=0.5;exitY=1;exitDx=0;exitDy=0;entryX=0.5;entryY=0;entryDx=0;entryDy=0;" parent="1" source="Cp3_aSlMcbeV5Vyt-3TC-16" target="Cp3_aSlMcbeV5Vyt-3TC-1" edge="1">
          <mxGeometry relative="1" as="geometry" />
        </mxCell>
        <mxCell id="Cp3_aSlMcbeV5Vyt-3TC-16" value="Start" style="ellipse;whiteSpace=wrap;html=1;" parent="1" vertex="1">
          <mxGeometry x="350" y="10" width="120" height="60" as="geometry" />
        </mxCell>
      </root>
    </mxGraphModel>
  </diagram>
</mxfile>
